<mxfile host="65bd71144e">
    <diagram id="PFjHuJzrTOnNmSYpY5Ab" name="前后端交互流程">
        <mxGraphModel dx="528" dy="513" grid="0" gridSize="10" guides="0" tooltips="1" connect="1" arrows="1" fold="1" page="0" pageScale="1" pageWidth="827" pageHeight="1169" math="0" shadow="0">
            <root>
                <mxCell id="0"/>
                <mxCell id="1" parent="0"/>
                <mxCell id="5" style="edgeStyle=none;html=1;exitX=1;exitY=0.25;exitDx=0;exitDy=0;entryX=0;entryY=0;entryDx=0;entryDy=88;entryPerimeter=0;strokeWidth=4;fillColor=#d80073;strokeColor=#A50040;" parent="1" source="2" target="3" edge="1">
                    <mxGeometry relative="1" as="geometry"/>
                </mxCell>
                <mxCell id="2" value="浏览器" style="rounded=0;whiteSpace=wrap;html=1;" parent="1" vertex="1">
                    <mxGeometry x="33" y="59" width="120" height="310" as="geometry"/>
                </mxCell>
                <mxCell id="8" style="edgeStyle=none;html=1;exitX=0;exitY=0;exitDx=0;exitDy=234;exitPerimeter=0;fontSize=16;fontColor=#FF3333;strokeWidth=4;fillColor=#60a917;strokeColor=#2D7600;" parent="1" source="3" edge="1">
                    <mxGeometry relative="1" as="geometry">
                        <mxPoint x="161" y="281" as="targetPoint"/>
                    </mxGeometry>
                </mxCell>
                <mxCell id="3" value="服务器" style="shape=cylinder3;whiteSpace=wrap;html=1;boundedLbl=1;backgroundOutline=1;size=15;" parent="1" vertex="1">
                    <mxGeometry x="398" y="47" width="155" height="322" as="geometry"/>
                </mxCell>
                <mxCell id="6" value="1、浏览器发送请求" style="text;html=1;resizable=0;autosize=1;align=center;verticalAlign=middle;points=[];fillColor=none;strokeColor=none;rounded=0;fontColor=#FF3333;fontSize=16;" parent="1" vertex="1">
                    <mxGeometry x="192" y="109" width="147" height="23" as="geometry"/>
                </mxCell>
                <mxCell id="7" value="2、服务器接收并处理请求" style="text;html=1;resizable=0;autosize=1;align=center;verticalAlign=middle;points=[];fillColor=none;strokeColor=none;rounded=0;fontSize=16;fontColor=#FF3333;" parent="1" vertex="1">
                    <mxGeometry x="358" y="163" width="195" height="23" as="geometry"/>
                </mxCell>
                <mxCell id="9" value="3、服务器响应数据" style="text;html=1;resizable=0;autosize=1;align=center;verticalAlign=middle;points=[];fillColor=none;strokeColor=none;rounded=0;fontSize=16;fontColor=#FF3333;" parent="1" vertex="1">
                    <mxGeometry x="226" y="258" width="147" height="23" as="geometry"/>
                </mxCell>
            </root>
        </mxGraphModel>
    </diagram>
</mxfile>